<?xml version="1.0" encoding="utf-8"?>
<!-- Generator: Adobe Illustrator 16.0.0, SVG Export Plug-In . SVG Version: 6.00 Build 0)  -->
<!DOCTYPE svg PUBLIC "-//W3C//DTD SVG 1.1//EN" "http://www.w3.org/Graphics/SVG/1.1/DTD/svg11.dtd">
<svg version="1.1" id="Capa_1" xmlns="http://www.w3.org/2000/svg" xmlns:xlink="http://www.w3.org/1999/xlink" x="0px" y="0px"
	 width="23.55px" height="28.35px" viewBox="2.4 0 23.55 28.35" enable-background="new 2.4 0 23.55 28.35" xml:space="preserve">
<g>
	<path fill="#494949" d="M19.087,16.633L19.015,16.6c-0.173-0.079-0.348-0.153-0.525-0.223c-0.193-0.077-0.391-0.149-0.59-0.217
		c-0.158-0.052-0.316-0.1-0.477-0.147c-0.244-0.07-0.491-0.134-0.746-0.19c-0.086-0.018-0.174-0.035-0.261-0.051l-0.06-0.012
		c-0.15-0.029-0.301-0.055-0.453-0.077l-0.044-0.007c-0.002,0-0.003-0.002-0.005-0.002l-0.043-0.005
		c-0.127-0.02-0.253-0.037-0.385-0.052l-0.445-0.037c-0.549-0.036-1.114-0.035-1.656,0.005l-0.158,0.013l-0.074,0.006l-0.185,0.017
		c-0.17,0.018-0.338,0.042-0.507,0.068l-0.049,0.007c-0.115,0.02-0.23,0.04-0.343,0.062c-0.126,0.022-0.25,0.048-0.375,0.074
		c-0.24,0.055-0.479,0.116-0.71,0.184c-0.184,0.053-0.366,0.11-0.537,0.169l-0.119,0.043c-0.362,0.128-0.722,0.275-1.071,0.437
		l-0.093,0.045L9.104,16.71C5.028,18.661,2.4,22.817,2.4,27.326c0,0.104,0.007,0.206,0.013,0.308l0.03,0.716h23.461l0.031-0.707
		c0.006-0.105,0.014-0.209,0.014-0.316C25.95,22.745,23.257,18.552,19.087,16.633z M3.551,27.199
		c0.049-4.049,2.443-7.764,6.092-9.475l0.117-0.046l0.014-0.013c0.286-0.131,0.581-0.25,0.88-0.355l0.095-0.033
		c0.163-0.057,0.325-0.108,0.493-0.156c0.21-0.062,0.424-0.116,0.639-0.165c0.111-0.023,0.222-0.046,0.336-0.067
		c0.091-0.017,0.181-0.033,0.272-0.048l0.045-0.008c0.165-0.026,0.33-0.05,0.494-0.067l0.376-0.033c0.492-0.036,0.963-0.041,1.534,0
		l0.365,0.03c0.091,0.011,0.182,0.022,0.291,0.038l0.131,0.02c0.139,0.02,0.275,0.043,0.414,0.069l0.064,0.012
		c0.077,0.015,0.154,0.029,0.227,0.045c0.227,0.05,0.449,0.108,0.67,0.172c0.146,0.043,0.291,0.087,0.434,0.134
		c0.179,0.06,0.355,0.125,0.531,0.194c0.168,0.066,0.335,0.137,0.5,0.212l0.027,0.014c3.732,1.712,6.156,5.438,6.205,9.526
		L3.551,27.199L3.551,27.199z M11.332,14.103c0.086,0.036,0.175,0.067,0.265,0.099l0.187,0.068c0.072,0.027,0.144,0.055,0.218,0.077
		c0.686,0.216,1.403,0.327,2.132,0.333l0.058,0.001c0.25,0,0.501-0.014,0.741-0.038c0.083-0.008,0.164-0.021,0.244-0.035l0.18-0.026
		c0.102-0.014,0.203-0.028,0.309-0.049c0.072-0.016,0.143-0.034,0.213-0.054l0.197-0.05c0.097-0.023,0.193-0.047,0.29-0.077
		c0.06-0.019,0.118-0.041,0.177-0.063l0.158-0.057c0.112-0.039,0.227-0.08,0.34-0.127c0.045-0.02,0.088-0.04,0.131-0.061
		l0.051-0.025c0.156-0.069,0.311-0.141,0.465-0.224l0.1-0.06c0.174-0.099,0.346-0.199,0.52-0.318c0.09-0.061,0.176-0.13,0.262-0.197
		l0.295-0.229c1.692-1.401,2.666-3.458,2.666-5.592l0.003-0.061c0-4.047-3.293-7.34-7.34-7.34c-3.863,0-7.078,3.021-7.317,6.878
		L6.867,6.973C6.858,7.095,6.851,7.216,6.851,7.34C6.85,10.296,8.609,12.95,11.332,14.103z M8.014,7.053l0.007-0.104
		c0.202-3.252,2.912-5.799,6.169-5.799c3.414,0,6.189,2.776,6.193,6.137L20.38,7.348c-0.002,1.842-0.824,3.575-2.258,4.767
		l-0.273,0.208c-0.061,0.05-0.123,0.099-0.199,0.152c-0.139,0.094-0.284,0.178-0.433,0.262l-0.082,0.05
		c-0.124,0.067-0.255,0.126-0.391,0.187l-0.152,0.073c-0.087,0.037-0.179,0.068-0.271,0.1l-0.189,0.068
		c-0.037,0.015-0.074,0.029-0.111,0.04c-0.07,0.021-0.143,0.039-0.215,0.057l-0.229,0.059c-0.05,0.013-0.099,0.027-0.143,0.036
		c-0.076,0.015-0.154,0.025-0.232,0.036l-0.219,0.033c-0.053,0.009-0.105,0.019-0.164,0.023c-0.192,0.021-0.385,0.031-0.58,0.033
		l-0.054-0.001h-0.001c-0.63,0-1.248-0.094-1.839-0.279c-0.051-0.016-0.101-0.036-0.151-0.055l-0.216-0.079
		c-0.067-0.023-0.134-0.047-0.199-0.073C9.483,12.073,8,9.833,8,7.34C8,7.243,8.007,7.148,8.014,7.053z"/>
</g>
</svg>
