<?xml version="1.0" encoding="utf-8"?>
<!-- Generator: Adobe Illustrator 16.0.0, SVG Export Plug-In . SVG Version: 6.00 Build 0)  -->
<!DOCTYPE svg PUBLIC "-//W3C//DTD SVG 1.1//EN" "http://www.w3.org/Graphics/SVG/1.1/DTD/svg11.dtd">
<svg version="1.1" id="Layer_1" xmlns="http://www.w3.org/2000/svg" xmlns:xlink="http://www.w3.org/1999/xlink" x="0px" y="0px"
	 width="28.35px" height="17.227px" viewBox="0 5.562 28.35 17.227" enable-background="new 0 5.562 28.35 17.227"
	 xml:space="preserve">
<g>
	<g>
		<path fill="#494949" d="M28.33,7.012c-0.001-0.8-0.652-1.45-1.452-1.45c-0.001,0-0.002,0-0.002,0L1.45,5.597
			c-0.388,0-0.752,0.152-1.026,0.427S0,6.663,0,7.051l0.02,14.287c0,0.388,0.152,0.752,0.427,1.026
			c0.274,0.273,0.638,0.424,1.025,0.424c0,0,0.001,0,0.002,0l25.426-0.035c0.801-0.001,1.451-0.653,1.45-1.454L28.33,7.012z
			 M25.282,7.016l-11.106,7.722L3.047,7.047L25.282,7.016z M18.872,16.195l6.588,5.108L2.871,21.334l6.627-5.14
			c0.317-0.246,0.375-0.702,0.129-1.019c-0.246-0.317-0.702-0.375-1.019-0.129l-7.138,5.535L1.453,7.71l12.311,8.508
			c0.125,0.086,0.269,0.129,0.413,0.129s0.29-0.044,0.414-0.13l12.288-8.542l0.019,12.905l-7.135-5.533
			c-0.316-0.246-0.773-0.188-1.019,0.129C18.498,15.492,18.556,15.948,18.872,16.195z"/>
	</g>
</g>
</svg>
