<?xml version="1.0" encoding="utf-8"?>
<!-- Generator: Adobe Illustrator 19.2.0, SVG Export Plug-In . SVG Version: 6.00 Build 0)  -->
<svg version="1.1" id="Layer_5" xmlns="http://www.w3.org/2000/svg" xmlns:xlink="http://www.w3.org/1999/xlink" x="0px" y="0px"
	 viewBox="0 0 196 30" style="enable-background:new 0 0 196 30;" xml:space="preserve">
<metadata><?xpacket begin="﻿" id="W5M0MpCehiHzreSzNTczkc9d"?>
<x:xmpmeta xmlns:x="adobe:ns:meta/" x:xmptk="Adobe XMP Core 5.6-c111 79.158366, 2015/09/25-01:12:00        ">
   <rdf:RDF xmlns:rdf="http://www.w3.org/1999/02/22-rdf-syntax-ns#">
      <rdf:Description rdf:about=""/>
   </rdf:RDF>
</x:xmpmeta>
                                                                                                    
                                                                                                    
                                                                                                    
                                                                                                    
                                                                                                    
                                                                                                    
                                                                                                    
                                                                                                    
                                                                                                    
                                                                                                    
                                                                                                    
                                                                                                    
                                                                                                    
                                                                                                    
                                                                                                    
                                                                                                    
                                                                                                    
                                                                                                    
                                                                                                    
                                                                                                    
                           
<?xpacket end="w"?></metadata>
<style type="text/css">
	.st0{fill:#1A1A1A;}
	.st1{fill:#E70095;}
</style>
<g>
	<g>
		<g>
			<path class="st0" d="M46.5,20.7c0.2,0.3,0.5,0.6,0.9,1c0.4,0.3,0.9,0.6,1.3,0.9c0.4,0.3,1,0.5,1.5,0.7c0.4,0.2,1.1,0.3,1.7,0.3
				c1.3,0,2.1-0.3,2.8-0.9c0.6-0.5,0.9-1.3,0.9-2c0-0.4-0.1-0.9-0.2-1.2c-0.2-0.3-0.4-0.6-0.9-1c-0.3-0.3-0.9-0.5-1.5-0.7
				s-1.4-0.4-2.3-0.6c-1-0.2-1.8-0.5-2.6-0.9c-0.7-0.4-1.3-0.9-1.7-1.4c-0.5-0.5-0.9-1.2-1.1-1.8c-0.2-0.6-0.4-1.4-0.4-2
				c0-0.7,0.1-1.6,0.4-2.2C45.6,8.2,46,7.5,46.6,7s1.4-1,2.2-1.4c1-0.3,2-0.5,3.2-0.5c1.1,0,2,0.1,2.9,0.4c0.7,0.2,1.5,0.5,2,0.9
				c0.5,0.3,1,0.6,1.3,1s0.5,0.5,0.6,0.7l-2.7,2.5c-0.1-0.1-0.3-0.2-0.5-0.4s-0.5-0.4-0.9-0.6c-0.3-0.2-0.7-0.4-1.3-0.5
				c-0.3-0.2-0.9-0.3-1.5-0.3c-0.5,0-1.1,0.1-1.4,0.2c-0.4,0.1-0.7,0.3-1.1,0.5c-0.2,0.2-0.4,0.5-0.5,0.9c-0.1,0.2-0.2,0.5-0.2,0.7
				c0,0.4,0.1,0.7,0.2,1c0.1,0.3,0.3,0.6,0.6,0.9c0.3,0.2,0.7,0.4,1.4,0.6c0.5,0.2,1.3,0.4,2.1,0.5c0.9,0.2,1.6,0.4,2.3,0.7
				s1.4,0.7,2,1.3c0.5,0.5,1.1,1.2,1.4,1.9c0.3,0.7,0.5,1.7,0.5,2.8c0,1-0.2,1.8-0.5,2.6c-0.4,0.7-0.9,1.5-1.6,2
				c-0.6,0.6-1.5,1.1-2.3,1.4c-1,0.3-1.9,0.5-3,0.5s-2-0.1-2.9-0.4c-0.9-0.2-1.6-0.5-2.3-1c-0.6-0.4-1.3-0.9-1.8-1.3s-1-0.9-1.3-1.3
				L46.5,20.7z"/>
			<path class="st0" d="M65.3,5.6H72c1.5,0,2.7,0.2,3.6,0.6c1,0.4,1.7,1,2.2,1.7c0.5,0.6,1,1.4,1.2,2.1c0.2,0.7,0.3,1.5,0.3,2.1
				c0,1.2-0.2,2.2-0.6,3c-0.4,0.9-1,1.5-1.6,2s-1.4,1-2.2,1.2c-0.9,0.2-1.7,0.4-2.5,0.4h-3.2v7.8h-3.8L65.3,5.6L65.3,5.6z M72,15.5
				c1,0,1.8-0.3,2.5-0.9c0.5-0.6,0.9-1.4,0.9-2.3s-0.3-1.8-1-2.5c-0.6-0.6-1.4-1-2.3-1h-2.9v6.5L72,15.5L72,15.5z"/>
			<path class="st0" d="M84.5,5.6h3.9v17.5h10.4v3.5H84.5V5.6z"/>
			<path class="st0" d="M103.5,5.6h13.7v3.5h-9.6V14h7.2v3.5h-7.2V23H118v3.5h-14.4L103.5,5.6L103.5,5.6z"/>
			<path class="st0" d="M128.7,9.1h-7.2V5.6h18.2v3.5h-7.2v17.5h-3.9L128.7,9.1L128.7,9.1z"/>
			<path class="st0" d="M144.3,5.6h4.1l10.1,14.9V5.6h3.8v21h-3.9l-10.2-15v15.2h-3.8V5.6H144.3z"/>
			<path class="st0" d="M168.4,5.6h3.9v21h-3.9V5.6z"/>
			<path class="st0" d="M178.3,5.6h3.9v8.6l7.8-8.6h4.5l-7.8,8.6l8.6,12.4h-4.8l-6.4-9.6l-1.9,2.1v7.4h-3.9L178.3,5.6L178.3,5.6z"/>
		</g>
	</g>
</g>
<g>
	<g>
		<g>
			<rect x="9.3" y="0.5" transform="matrix(0.8691 -0.4946 0.4946 0.8691 -1.8157 5.5681)" class="st1" width="0.6" height="11.4"/>
		</g>
		<g>
			<rect x="-1.7" y="5.9" transform="matrix(0.4946 -0.8691 0.8691 0.4946 -3.396 6.5895)" class="st1" width="11.4" height="0.6"/>
		</g>
		<g>
			<rect x="1.1" y="10.8" class="st1" width="11.4" height="0.6"/>
		</g>
		<circle class="st1" cx="6.8" cy="1.2" r="1.2"/>
	</g>
	<g>
		<g>
			
				<rect x="20.6" y="0.5" transform="matrix(0.8691 -0.4946 0.4946 0.8691 -0.3405 11.1428)" class="st1" width="0.6" height="11.4"/>
		</g>
		<g>
			<rect x="9.5" y="5.9" transform="matrix(0.4946 -0.8691 0.8691 0.4946 2.3002 16.3852)" class="st1" width="11.4" height="0.6"/>
		</g>
		<g>
			<rect x="12.4" y="10.8" class="st1" width="11.4" height="0.6"/>
		</g>
		<circle class="st1" cx="18.1" cy="1.2" r="1.2"/>
	</g>
	<g>
		<g>
			
				<rect x="31.8" y="0.5" transform="matrix(0.8691 -0.4946 0.4946 0.8691 1.1319 16.7071)" class="st1" width="0.6" height="11.4"/>
		</g>
		<g>
			
				<rect x="20.8" y="5.9" transform="matrix(0.4946 -0.8691 0.8691 0.4946 7.9858 26.1627)" class="st1" width="11.4" height="0.6"/>
		</g>
		<g>
			<rect x="23.6" y="10.8" class="st1" width="11.4" height="0.6"/>
		</g>
		<circle class="st1" cx="29.3" cy="1.2" r="1.2"/>
	</g>
	<circle class="st1" cx="18.1" cy="28.8" r="1.2"/>
	<g>
		<g>
			<rect x="9.1" y="7.6" transform="matrix(0.728 -0.6856 0.6856 0.728 -11.0492 11.8453)" class="st1" width="0.6" height="24.5"/>
		</g>
		<g>
			
				<rect x="14.9" y="10.6" transform="matrix(0.9519 -0.3063 0.3063 0.9519 -5.378 5.6268)" class="st1" width="0.6" height="18.7"/>
		</g>
		<circle class="st1" cx="1.2" cy="11.2" r="1.2"/>
		<circle class="st1" cx="12.4" cy="11.2" r="1.2"/>
	</g>
	<g>
		<g>
			
				<rect x="14.5" y="19.5" transform="matrix(0.6856 -0.728 0.728 0.6856 -6.0405 25.7076)" class="st1" width="24.5" height="0.6"/>
		</g>
		<g>
			
				<rect x="11.6" y="19.6" transform="matrix(0.3063 -0.9519 0.9519 0.3063 -4.4853 33.7385)" class="st1" width="18.7" height="0.6"/>
		</g>
		<circle class="st1" cx="34.9" cy="11.2" r="1.2"/>
		<circle class="st1" cx="23.7" cy="11.2" r="1.2"/>
	</g>
	<g>
		<rect x="6.7" y="1" class="st1" width="22.7" height="0.6"/>
	</g>
</g>
</svg>
